<?xml version="1.0"?>
<!-- Converted with SVG Converter - Version 0.9.5 (Compiled Mon May 30 09:08:51 2011) - Copyright (C) 2011 Nokia -->
<svg xmlns="http://www.w3.org/2000/svg" width="96px" x="0px" version="1.1" y="0px" height="96px" viewBox="0 0 96 96" xmlns:xlink="http://www.w3.org/1999/xlink" baseProfile="tiny" id="Слой_1" xml:space="preserve">
 <metadata id="metadata30"/>
 <defs id="defs28">
  <linearGradient gradientTransform="matrix(1 0 0 1 -1548 1548)" id="SVGID_1_-1" y1="-1548.9824" x1="1554.4688" y2="-1437.0166" gradientUnits="userSpaceOnUse" x2="1616.5325">
   <stop offset="0" stop-color="#FFFFFF" id="stop3032"/>
   <stop offset="1" stop-color="#DEDEDF" id="stop3034"/>
  </linearGradient>
  <linearGradient gradientTransform="translate(-1548,1548)" id="SVGID_1_-7" y1="-1548.9824" x1="1554.4688" y2="-1437.0166" gradientUnits="userSpaceOnUse" x2="1616.5325">
   <stop offset="0" stop-color="#FFFFFF" id="stop3077"/>
   <stop offset="1" stop-color="#DEDEDF" id="stop3079"/>
  </linearGradient>
  <linearGradient gradientTransform="translate(-1548,1548)" id="linearGradient3126" y1="-1548.9824" y2="-1437.0166" x1="1554.4688" x2="1616.5325" gradientUnits="userSpaceOnUse">
   <stop offset="0" stop-color="#FFFFFF" id="stop9"/>
   <stop offset="1" stop-color="#DEDEDF" id="stop11"/>
  </linearGradient>
  <linearGradient gradientTransform="translate(-1548,1548)" id="linearGradient3128" y1="-1548.9824" y2="-1437.0166" x1="1554.4688" x2="1616.5325" gradientUnits="userSpaceOnUse">
   <stop offset="0" stop-color="#FFFFFF" id="stop14"/>
   <stop offset="1" stop-color="#DEDEDF" id="stop16"/>
  </linearGradient>
 </defs>
 <path display="none" fill-opacity="0.4" id="path3" d="M88,49c0,29.633-10.363,40-40,40C18.365,89,8,78.633,8,49C8,19.365,18.365,9,48,9&#xd;&#xa;&#x9;C77.637,9,88,19.365,88,49z"/>
 <linearGradient gradientTransform="matrix(1,0,0,-1,-331.0391,-1664.7813)" id="SVGID_1_" y1="-1752.2363" y2="-1671.543" x1="379.04001" x2="379.04001" gradientUnits="userSpaceOnUse">
  <stop offset="0" style="stop-color:#202020;stop-opacity:1" id="stop6"/>
  <stop offset="1" style="stop-color:#808080;stop-opacity:1" id="stop8"/>
  <stop offset="0" style="stop-color:#FFFFFF" id="stop13"/>
  <stop offset="1" style="stop-color:#FFFFFF;stop-opacity:0" id="stop15"/>
 </linearGradient>
 <path fill="url(#SVGID_1_)" style="fill-opacity:1.0" id="path10" d="M88,48c0,29.633-10.363,40-40,40C18.365,88,8,77.633,8,48C8,18.365,18.365,8,48,8&#xd;&#xa;&#x9;C77.637,8,88,18.365,88,48z"/>
 <linearGradient gradientTransform="matrix(1 0 0 -1 -331.0391 -1664.7813)" id="SVGID_2_" y1="-1673.3262" y2="-1754.0215" x1="379.0391" x2="379.0391" gradientUnits="userSpaceOnUse">
  <stop offset="0" style="stop-color:#FFFFFF" id="stop13"/>
  <stop offset="1" style="stop-color:#FFFFFF;stop-opacity:0" id="stop15"/>
 </linearGradient>
 <path fill="url(#SVGID_2_)" fill-opacity="0.25" id="path17" d="M48,8C18.365,8,8,18.365,8,48c0,29.633,10.365,40,40,40&#xd;&#xa;&#x9;c29.637,0,40-10.367,40-40C88,18.365,77.637,8,48,8z M48,87C18.84,87,9,77.158,9,48S18.84,9,48,9c29.158,0,39,9.842,39,39&#xd;&#xa;&#x9;S77.158,87,48,87z"/>
 <rect width="96" fill="none" height="96" id="rect19"/>
 <rect width="37.538418" x="93.436478" y="-18.960981" height="55.056347" style="fill:none" id="rect3132" transform="matrix(0.93373587,0.35796274,-0.35796274,0.93373587,0,0)"/>
 <rect width="37.538418" x="29.315639" y="17.827751" height="55.056347" style="fill:none" id="rect3138"/>
 <path style="display:inline;opacity:1;fill:#f2f2f2;fill-opacity:1;stroke:none;stroke-width:2.8125;stroke-linecap:square;stroke-linejoin:round;stroke-miterlimit:4;stroke-dasharray:none;stroke-dashoffset:0;stroke-opacity:1;paint-order:fill markers stroke" id="rect974" d="m 26,26 v 4 h 4 v -4 z m 4,4 v 4 h 4 v -4 z m 4,4 v 4 h 4 v -4 z m 0,4 h -4 v 4 h 4 z m -4,4 h -4 v 4 h 4 z m 8,0 v 4 h 16 v -4 z"/>
 <path style="display:inline;opacity:1;fill:#0066ff;fill-opacity:1;stroke:none;stroke-width:2.8125;stroke-linecap:square;stroke-linejoin:round;stroke-miterlimit:4;stroke-dasharray:none;stroke-dashoffset:0;stroke-opacity:1;paint-order:fill markers stroke" id="rect881" d="m 22,22 v 20 h -4 v 4 h 4 v 4 h -4 v 4 h 4 v 20 h 4 v -4 h 4 V 66 H 26 V 54 h 4 V 50 H 26 V 46 22 Z m 8,32 v 4 h 4 v -4 z m 4,4 v 4 h 4 v -4 z m 0,4 h -4 v 4 h 4 z M 18,54 h -4 v 4 h 4 z m 0,-12 v -4 h -4 v 4 z"/>
</svg>
